# xmcd
#
# Track frame offsets:
#	150
#	20122
#	39065
#	55425
#	75005
#	84972
#	97800
#	112997
#	123530
#	140107
#	152732
#	164520
#
# Disc length: 2388 seconds
#
# Revision: 0
# Processed by: cddbd v1.5.2PL0 Copyright (c) Steve Scherf et al.
# Submitted via: audiograbber 1.83.01
#
DISCID=8b09520c
DTITLE=Various Artist - Lacta Millenium
DYEAR=2000
DGENRE=POP
TTITLE0=Jimmy Ruffin and Jackson Moore - I'm Gonna Love You Forever (Hi Energy Mi
TTITLE0=x)
TTITLE1=Kirka - Losing You
TTITLE2=Nina Simone - My Baby Just Cares For Me
TTITLE3=Fabio B - Voglio Andare Al Mare (Mix Authority)
TTITLE4=Betty Everett - The Shoop Shoop Song
TTITLE5=Ray Charles - Unchain My Heart
TTITLE6=Real Thing - You To Me Are Everything
TTITLE7=Louis Armstrong - What A Wonderful World
TTITLE8=Secret Life - Love So Strong
TTITLE9=Percy Sledge - When A Ma Loves A Woman
TTITLE10=The Platters - Only You
TTITLE11=The Dells - Love Is Blue - I Can Sing A Rainbow
EXTD=
EXTT0=
EXTT1=
EXTT2=
EXTT3=
EXTT4=
EXTT5=
EXTT6=
EXTT7=
EXTT8=
EXTT9=
EXTT10=
EXTT11=
PLAYORDER=
